HIERARCHY
ROOT RootJoint
{
    OFFSET   0.000000   0.000000   0.000000
    CHANNELS 6 Xposition Yposition Zposition Xrotation Yrotation Zrotation
    JOINT pelvis_lowerback
    {
        OFFSET   0.000000   0.093605   0.000000
        CHANNELS 3 Xrotation Yrotation Zrotation
        JOINT lowerback_torso
        {
            OFFSET   0.000000   0.100000   0.000000
            CHANNELS 3 Xrotation Yrotation Zrotation
            JOINT torso_head
            {
                OFFSET   0.000000   0.282350   0.000000
                CHANNELS 3 Xrotation Yrotation Zrotation
                End Site
                {
                    OFFSET   0.000000   0.192650   0.000000
                }
            }
            JOINT rTorso_Clavicle
            {
                OFFSET  -0.001000   0.157500   0.000000
                CHANNELS 3 Xrotation Yrotation Zrotation
                JOINT rShoulder
                {
                    OFFSET  -0.117647   0.000000   0.000000
                    CHANNELS 3 Xrotation Yrotation Zrotation
                    JOINT rElbow
                    {
                        OFFSET  -0.245000   0.000000   0.000000
                        CHANNELS 3 Xrotation Yrotation Zrotation
                        JOINT rWrist
                        {
                            OFFSET  -0.240000   0.000000   0.000000
                            CHANNELS 3 Xrotation Yrotation Zrotation
                            End Site
                            {
                                OFFSET  -0.116353  -0.002500   0.000000
                            }
                        }
                    }
                }
            }
            JOINT lTorso_Clavicle
            {
                OFFSET   0.001000   0.157500   0.000000
                CHANNELS 3 Xrotation Yrotation Zrotation
                JOINT lShoulder
                {
                    OFFSET   0.117647   0.000000   0.000000
                    CHANNELS 3 Xrotation Yrotation Zrotation
                    JOINT lElbow
                    {
                        OFFSET   0.245000   0.000000   0.000000
                        CHANNELS 3 Xrotation Yrotation Zrotation
                        JOINT lWrist
                        {
                            OFFSET   0.240000   0.000000   0.000000
                            CHANNELS 3 Xrotation Yrotation Zrotation
                            End Site
                            {
                                OFFSET   0.116353  -0.002500   0.000000
                            }
                        }
                    }
                }
            }
        }
    }
    JOINT rHip
    {
        OFFSET  -0.100000  -0.051395   0.000000
        CHANNELS 3 Xrotation Yrotation Zrotation
        JOINT rKnee
        {
            OFFSET   0.000000  -0.410000   0.000000
            CHANNELS 3 Xrotation Yrotation Zrotation
            JOINT rAnkle
            {
                OFFSET   0.000000  -0.390000   0.000000
                CHANNELS 3 Xrotation Yrotation Zrotation
                JOINT rToeJoint
                {
                    OFFSET   0.000000  -0.050000   0.130000
                    CHANNELS 3 Xrotation Yrotation Zrotation
                    End Site
                    {
                        OFFSET  -0.010000   0.002000   0.060000
                    }
                }
            }
        }
    }
    JOINT lHip
    {
        OFFSET   0.100000  -0.051395   0.000000
        CHANNELS 3 Xrotation Yrotation Zrotation
        JOINT lKnee
        {
            OFFSET   0.000000  -0.410000   0.000000
            CHANNELS 3 Xrotation Yrotation Zrotation
            JOINT lAnkle
            {
                OFFSET   0.000000  -0.390000   0.000000
                CHANNELS 3 Xrotation Yrotation Zrotation
                JOINT lToeJoint
                {
                    OFFSET   0.000000  -0.050000   0.130000
                    CHANNELS 3 Xrotation Yrotation Zrotation
                    End Site
                    {
                        OFFSET   0.010000   0.002000   0.060000
                    }
                }
            }
        }
    }
}
MOTION
Frames: 7
Frame Time:   0.008333
 -2.295256   0.881335   4.207441  -3.605201  -2.194621  -0.303945   8.332234   0.298086  -0.498556 -10.608463  -1.184771  -0.201162   2.699044  -0.641821  -1.783840 -14.003692   4.727736 -33.935364 -47.155242  18.446495 -13.755143  -0.086532  46.817930   0.064152   1.778781   5.012061 -26.154046 -12.866921  -4.052845  32.691440 -47.299763 -17.851448  16.179074  -0.062847 -38.844597  -0.046750   1.470065  -8.690148  30.885946  -9.601045   2.297738 -14.699303  43.482770   0.013338   0.013591  -5.799741  -2.271253   7.115164 -25.586902  -0.036664  -0.033490 -12.723798  -0.678767  12.686627  47.867708   0.001290  -0.006193 -11.184203   4.200179  -2.564194  -8.760258   0.015452  -0.006014
 -2.295324   0.872170   4.208816  -3.751018  -2.027952  -0.257765   8.664156   0.316125  -0.571271 -11.017997  -1.232050  -0.346704   2.694730  -0.652450  -1.644492 -14.330058   5.080944 -33.656194 -47.200592  18.825406 -13.757249  -0.080256  47.875795   0.064380   1.871919   5.099550 -26.337562 -13.035180  -4.380209  32.534835 -47.468077 -18.198553  16.311660  -0.058364 -39.976575  -0.045627   1.450726  -8.684453  30.970908  -9.715616   2.214921 -14.846991  44.924539   0.011719   0.009887  -7.979896  -2.536804   6.905481 -29.358208  -0.037034  -0.026927 -13.098143  -0.903666  12.641237  49.683258   0.000826  -0.003976 -12.891127   4.431988  -2.115474 -12.956850   0.030237  -0.010722
 -2.295228   0.863275   4.209945  -3.924908  -1.860573  -0.202665   9.021907   0.345515  -0.633788 -11.353741  -1.267942  -0.489907   2.681205  -0.655671  -1.507481 -14.633216   5.406307 -33.400225 -47.246536  19.195358 -13.734708  -0.073653  48.878920   0.063339   1.965937   5.208833 -26.454871 -13.195145  -4.678180  32.391373 -47.627958 -18.533443  16.421759  -0.053485 -41.049224  -0.043271   1.450724  -8.725658  31.011673  -9.826169   2.122186 -15.018908  46.314420   0.010262   0.006699 -10.030499  -2.804493   6.696036 -32.949525  -0.037962  -0.021371 -13.464661  -1.107477  12.586155  51.434707   0.000791  -0.001972 -14.485350   4.638381  -1.691469 -16.842097   0.040250  -0.012264
 -2.294653   0.855548   4.211008  -4.170941  -1.615454  -0.291701   9.435754   0.371823  -0.532227 -11.631325  -1.308265  -0.567017   2.672196  -0.660471  -1.371417 -14.915770   5.702853 -33.163658 -47.287663  19.552034 -13.709991  -0.067050  49.828560   0.061573   2.089837   5.383405 -26.557041 -13.343302  -4.951650  32.259434 -47.776442 -18.851992  16.518781  -0.048873 -42.057442  -0.040039   1.471512  -8.801016  31.055299 -10.050559   2.037454 -15.099035  48.093570   0.010305   0.003960 -12.478165  -3.036478   6.692266 -30.993567  -0.028638  -0.017124 -13.753001  -1.334754  12.636976  53.042028   0.001846   0.000098 -15.934396   4.851466  -1.275930 -19.928505   0.044169  -0.013848
 -2.293723   0.848606   4.212115  -4.426977  -1.310812  -0.371356   9.823149   0.396428  -0.441354 -11.854804  -1.352439  -0.603109   2.664794  -0.666906  -1.248733 -15.178320   5.975115 -32.949728 -47.325474  19.883948 -13.682437  -0.060970  50.713416   0.059493   2.209837   5.553645 -26.615456 -13.480861  -5.204554  32.135665 -47.916754 -19.153235  16.601570  -0.044480 -43.005560  -0.036245   1.508438  -8.903043  31.067606 -10.219252   1.928480 -15.198845  49.713506   0.010479   0.002259 -14.453076  -3.250062   6.611604 -29.607357  -0.020516  -0.013148 -14.023050  -1.543566  12.655290  54.532355   0.003490   0.002044 -17.258859   5.041502  -0.881419 -22.378393   0.044015  -0.014868
 -2.292517   0.842235   4.213235  -4.664579  -0.970889  -0.427238  10.178117   0.426219  -0.364376 -12.053182  -1.390988  -0.625927   2.658118  -0.672003  -1.136995 -15.421929   6.227871 -32.754331 -47.360435  20.192600 -13.655456  -0.055506  51.536943   0.057235   2.318893   5.705067 -26.647995 -13.609044  -5.438489  32.020149 -48.047961 -19.434028  16.677446  -0.040284 -43.892631  -0.032142   1.550556  -9.012525  31.061380 -10.334090   1.830265 -15.323014  51.167711   0.010837   0.001475 -16.162355  -3.455896   6.484593 -28.503377  -0.013963  -0.009570 -14.299135  -1.732388  12.635303  55.925419   0.005247   0.003641 -18.480090   5.201270  -0.512035 -24.405301   0.041730  -0.015229
 -2.291094   0.836313   4.214344  -4.877447  -0.611976  -0.465013  10.504473   0.463575  -0.296434 -12.236530  -1.420285  -0.642160   2.652339  -0.673768  -1.033898 -15.647517   6.463939 -32.574412 -47.392851  20.479942 -13.629986  -0.050583  52.303952   0.054815   2.418013   5.839522 -26.668295 -13.729215  -5.655222  31.912691 -48.170279 -19.693921  16.750512  -0.036283 -44.720614  -0.027971   1.591859  -9.118679  31.049641 -10.410175   1.745229 -15.464479  52.478223   0.011216   0.001176 -17.685424  -3.655043   6.333207 -27.577052  -0.008839  -0.006580 -14.581312  -1.904263  12.586841  57.229739   0.006855   0.004813 -19.614726   5.333878  -0.167743 -26.164275   0.038512  -0.015141
